<svg xmlns="http://www.w3.org/2000/svg" width="16" height="16.001" viewBox="0 0 16 16.001"><defs><style>.a{fill:#fff;}</style></defs><path class="a" d="M-3416.764-3074.949a4.776,4.776,0,0,1-2.814.934,4.1,4.1,0,0,1-.632-.047.75.75,0,0,1-.626-.629.744.744,0,0,1,.409-.785,3.061,3.061,0,0,0,1.282-1.421,8.007,8.007,0,0,1,.5-10.758,7.942,7.942,0,0,1,5.656-2.344,7.943,7.943,0,0,1,5.656,2.344,7.947,7.947,0,0,1,2.348,5.656,7.942,7.942,0,0,1-2.344,5.656,8,8,0,0,1-5.663,2.344A7.962,7.962,0,0,1-3416.764-3074.949Zm.189-.937a7.086,7.086,0,0,0,8.6-1.1,7.089,7.089,0,0,0,0-10.021,7.091,7.091,0,0,0-10.02,0,7.094,7.094,0,0,0-.3,9.706.472.472,0,0,1,.112.257.466.466,0,0,1-.024.294,4.478,4.478,0,0,1-1.374,1.823h0a3.906,3.906,0,0,0,2.412-.859.148.148,0,0,1,.037-.027.459.459,0,0,1,.324-.135A.452.452,0,0,1-3416.575-3075.886Zm5.924-6.113a.562.562,0,0,1,.562-.562.562.562,0,0,1,.561.562.561.561,0,0,1-.561.562A.562.562,0,0,1-3410.651-3082Zm-2.9,0a.562.562,0,0,1,.562-.562.562.562,0,0,1,.561.562.562.562,0,0,1-.561.562A.562.562,0,0,1-3413.547-3082Zm-2.9,0a.562.562,0,0,1,.562-.562.562.562,0,0,1,.561.562.562.562,0,0,1-.561.562A.562.562,0,0,1-3416.443-3082Z" transform="translate(3420.981 3090)"/></svg>