<svg xmlns="http://www.w3.org/2000/svg" width="24" height="24" viewBox="0 0 24 24"><defs><style>.a{fill:none;}.b{fill:#3ab4d1;}</style></defs><g transform="translate(0.452)"><rect class="a" width="24" height="24" transform="translate(-0.452)"/><path class="b" d="M-3418.5-3090a.662.662,0,0,1-.662-.662V-3100.7a.661.661,0,0,1,.223-.5l7.5-6.64a.662.662,0,0,1,.877,0l7.5,6.64a.66.66,0,0,1,.224.5v10.037a.662.662,0,0,1-.662.662Zm14.338-1.323v-9.077l-6.838-6.053-6.838,6.053v9.077h3.949v-5.184a.662.662,0,0,1,.662-.662h4.456a.662.662,0,0,1,.662.662v5.184Zm-5.272,0v-4.522h-3.132v4.522Z" transform="translate(3423.157 3111)"/></g></svg>