<svg xmlns="http://www.w3.org/2000/svg" width="24" height="24" viewBox="0 0 24 24"><defs><style>.a{fill:none;}.b{fill:#3ab4d1;}</style></defs><rect class="a" width="24" height="24"/><path class="b" d="M-511.167-2519a.834.834,0,0,1-.833-.833v-18.334a.835.835,0,0,1,.833-.833h11a.835.835,0,0,1,.834.833v3.667H-501v-2.833h-9.332v16.666H-501v-2.833h1.668v3.667a.834.834,0,0,1-.834.833Zm10.555-6.248a.848.848,0,0,1,0-1.2l1.7-1.7h-6.24a.85.85,0,0,1-.85-.85.85.85,0,0,1,.85-.849h6.24l-1.7-1.7a.848.848,0,0,1,0-1.2.849.849,0,0,1,1.2,0l3.151,3.151a.85.85,0,0,1,0,1.2l-3.151,3.152a.848.848,0,0,1-.6.249A.845.845,0,0,1-500.612-2525.248Z" transform="translate(516 2541)"/></svg>