<svg xmlns="http://www.w3.org/2000/svg" width="24" height="24" viewBox="0 0 24 24"><defs><style>.a{fill:none;}.b{fill:#3ab4d1;}</style></defs><rect class="a" width="24" height="24"/><path class="b" d="M-688.93-3299.068c-.315-.138-2.777-1.292-3.393-3.007h-10.908a.769.769,0,0,1-.769-.769v-2.308a4.616,4.616,0,0,1,4.615-4.616h6.154a4.61,4.61,0,0,1,3.039,1.115l1.392-.346a.77.77,0,0,1,.37,0l3.077.769a.77.77,0,0,1,.585.769v4.616c0,2.139-3.17,3.615-3.531,3.777a.765.765,0,0,1-.316.068A.765.765,0,0,1-688.93-3299.068Zm-1.992-7.792v4.016c0,.769,1.277,1.692,2.308,2.223,1.031-.531,2.308-1.454,2.308-2.223v-4.039l-2.308-.577Zm-11.54,1.708v1.539h10v-3.847a.77.77,0,0,1,.269-.569,3.081,3.081,0,0,0-1.039-.2h-6.154A3.077,3.077,0,0,0-702.461-3305.153Zm2.308-10a3.847,3.847,0,0,1,3.847-3.847,3.847,3.847,0,0,1,3.846,3.847,3.846,3.846,0,0,1-3.846,3.846A3.847,3.847,0,0,1-700.154-3315.154Zm1.539,0a2.308,2.308,0,0,0,2.308,2.308,2.307,2.307,0,0,0,2.308-2.308,2.307,2.307,0,0,0-2.308-2.307A2.307,2.307,0,0,0-698.615-3315.154Z" transform="translate(706 3321)"/></svg>