<svg xmlns="http://www.w3.org/2000/svg" width="24" height="24" viewBox="0 0 24 24"><defs><style>.a{fill:none;}.b{fill:#3ab4d1;}</style></defs><g transform="translate(0)"><rect class="a" width="24" height="24" transform="translate(0)"/><path class="b" d="M-834.867-3343a.734.734,0,0,1-.733-.734v-3.666h-3.666a.733.733,0,0,1-.733-.733v-16.133a.733.733,0,0,1,.733-.733h13.2a.734.734,0,0,1,.733.733v3.667h3.666a.734.734,0,0,1,.734.733v16.133a.734.734,0,0,1-.734.734Zm.734-1.467H-822.4v-14.666h-11.733Zm-4.4-4.4h2.933v-11a.734.734,0,0,1,.733-.733h8.067v-2.934h-11.733Zm7.333,1.466a.733.733,0,0,1-.733-.733.733.733,0,0,1,.733-.733h5.867a.733.733,0,0,1,.733.733.733.733,0,0,1-.733.733Zm0-3.667a.733.733,0,0,1-.733-.733.733.733,0,0,1,.733-.733h5.867a.733.733,0,0,1,.733.733.733.733,0,0,1-.733.733Zm0-3.666a.733.733,0,0,1-.733-.733.733.733,0,0,1,.733-.733h5.867a.733.733,0,0,1,.733.733.733.733,0,0,1-.733.733Z" transform="translate(842 3366)"/></g></svg>